<?xml version="1.0" encoding="utf-8"?>
<!-- Generator: Adobe Illustrator 18.0.0, SVG Export Plug-In . SVG Version: 6.00 Build 0)  -->
<!DOCTYPE svg PUBLIC "-//W3C//DTD SVG 1.1//EN" "http://www.w3.org/Graphics/SVG/1.1/DTD/svg11.dtd">
<svg version="1.1" xmlns="http://www.w3.org/2000/svg" xmlns:xlink="http://www.w3.org/1999/xlink" x="0px" y="0px"
	 viewBox="0 0 360 360" enable-background="new 0 0 360 360" xml:space="preserve">
<g id="Circle">
</g>
<g id="Outer" display="none">
	<path id="SVGID_x5F_1_x5F_" display="inline" fill="none" d="M152.6,340.2C64.1,325,4.7,241.1,19.8,152.6S118.9,4.7,207.4,19.8
		s147.9,99.1,132.8,187.6C325,295.9,241.1,355.3,152.6,340.2z"/>
	<text display="inline">	<textPath  xlink:href="#SVGID_x5F_1_x5F_" startOffset="64.5508%">
<tspan  fill="#93278F" font-family="'Gotham-Book'" font-size="12">ONCE UPON A TIME...</tspan>	</textPath>
</text>
	<path id="SVGID_x5F_2_x5F_" display="inline" fill="none" d="M39,99.2C83.6,21.3,182.9-5.6,260.8,39S365.6,182.9,321,260.8
		S177.1,365.6,99.2,321S-5.6,177.1,39,99.2z"/>
	<text display="inline">	<textPath  xlink:href="#SVGID_x5F_2_x5F_" startOffset="64.5508%">
<tspan  fill="#93278F" font-family="'Gotham-Book'" font-size="12">IN A GALAXY FAR FAR AWAY....</tspan>	</textPath>
</text>
	<path id="SVGID_x5F_3_x5F_" display="inline" fill="none" d="M307.4,79.1c55.7,70.4,43.8,172.6-26.5,228.3s-172.6,43.8-228.3-26.5
		S8.8,108.3,79.1,52.6S251.7,8.8,307.4,79.1z"/>
	<text display="inline">	<textPath  xlink:href="#SVGID_x5F_3_x5F_" startOffset="64.5508%">
<tspan  fill="#93278F" font-family="'Gotham-Book'" font-size="12">IT WAS A DARK AND STORMY NIGHT...</tspan>	</textPath>
</text>
</g>
<g id="Middle" display="none">
	<g display="inline">
		<g>
			<path fill="#93278F" d="M239.7,73.1l-16.9-4.7l0.2-15.5c0-0.7-0.5-1.4-1.2-1.6c-0.1,0-0.3-0.1-0.3,0l-1.6-0.1
				c-0.4,0-0.9,0.1-1.2,0.4s-0.5,0.7-0.5,1.2l-0.2,14.3l-7.3-2l7.2-12.4c0.2-0.4,0.3-0.8,0.1-1.3c-0.1-0.4-0.4-0.8-0.8-1l-1.4-0.8
				c-0.1,0-0.2-0.1-0.3-0.2c-0.7-0.2-1.4,0.1-1.8,0.7l-7.9,13.4l-17-4.7c-0.6-0.2-1.2,0.2-1.3,0.7l-0.8,2.8c-0.1,0.3,0,0.7,0.2,1
				l-0.2,0.8c-0.7,0.1-1.8,0.3-2.8,1.2l0,0l-0.9,0.9c-0.1,0-0.1,0-0.1,0.1c-0.7,0.9-1.4,2.1-2.2,3.7c-1.4,2.4-3.1,7-3.1,7.2l0,0
				c-0.4,1.1-0.7,1.9-0.8,2.2c-0.3,1.2,0.8,3.8,1.2,4.5c0.1,0.2,0.2,0.3,0.4,0.3c0.1,0,0.2,0.1,0.3,0c0.1,0,2.1-0.7,3.3-1
				c0.2-0.1,0.5-0.2,1.3-0.8l0,0l0,0c0.1,0,0.1-0.1,0.2-0.1l0-0.1l1.3-1l-1.2,8.9c-0.3,1.7,0.8,3.3,2.5,3.8l38.6,10.7
				c1.7,0.5,3.4-0.4,4.1-2l9.1-23l0,0l0,0l0.5-1.7l0.2,0.1c0.6,0.2,1.2-0.2,1.3-0.7l0.8-2.8C240.6,73.9,240.3,73.3,239.7,73.1z
				 M219.4,52.4c0.1,0,0.2-0.2,0.3-0.1l1.6,0.1l0.1,0c0.2,0.1,0.3,0.2,0.3,0.4l-0.3,25.6c0,0.7-0.6,1.2-1.2,1.3l-0.1,0
				c-0.1,0-0.3,0-0.4,0c-0.6-0.2-0.9-0.7-0.9-1.2l0.4-25.7C219.3,52.6,219.3,52.5,219.4,52.4z M208.1,69.5l9.6,2.7v1.2l-10.3-2.9
				L208.1,69.5z M217.8,68.3l-0.1,2.8l-9-2.5l1.4-2.4L217.8,68.3z M214.7,50.8c0.1-0.2,0.3-0.3,0.5-0.2c0,0,0.1,0,0.1,0l1.4,0.7
				c0.1,0,0.2,0.1,0.2,0.3c0,0.1,0,0.2,0,0.3l-12.9,22.3c-0.3,0.5-0.9,0.7-1.4,0.6c-0.1,0-0.3-0.1-0.4-0.2l-0.1-0.1
				c-0.6-0.4-0.7-1.1-0.4-1.7L214.7,50.8z M201,68.3c-0.1-0.2-0.2-0.3-0.4-0.4l-3.2-0.9c-0.1,0-0.1,0-0.2,0c-0.1,0-0.1-0.1-0.2-0.1
				l-1.5-0.4l-2.9-0.8l-0.6-0.2l-4.2-1.2l0.1-0.5l15.1,4.2l-0.6,1.1l-1.5-0.4C201.1,68.6,201,68.5,201,68.3z M195.2,72.9
				c-0.5-0.8-1-1.8-1.6-3.1l1.8-0.8c0.4,1,0.9,1.9,1.1,2.5L195.2,72.9z M189.1,76.2c-0.4-0.7-1-1.7-1.7-3.1l1.6-1
				c0.7,1.5,1.3,2.7,2.1,3.6C190.5,75.9,189.7,76.2,189.1,76.2z M183.4,80.7c-0.4-1.2-0.9-2.9-1.6-4.1l1.3-0.7
				c0.6,1.3,1.1,2.9,1.4,3.9L183.4,80.7z M179.4,75.4c0.1,0.2,0.2,0.4,0.4,0.7c-0.2,0.1-0.5,0.2-0.8,0.3
				C179.2,76.1,179.3,75.8,179.4,75.4z M181,71.8c0.1,0.2,0.1,0.4,0.2,0.5l-0.7,0.4C180.7,72.4,180.9,72.1,181,71.8z M185.3,71.1
				l0.6,1.6l-0.1,0c-0.8,0.5-1.5,1-2.4,1.5c-0.3-0.5-0.6-1.1-0.8-1.5C183.5,72.3,184.3,71.8,185.3,71.1z M195,67.6l0.1,0.3l-1.7,0.8
				l-0.5-1.7L195,67.6z M191.7,67.3l0.5,1.8c-1,0.4-1.8,0.9-2.7,1.3l-0.7-1.8C189.8,68.2,190.9,67.7,191.7,67.3z M188.6,67.6
				c-0.2-0.8-0.5-1.4-0.6-1.9l2.8,0.8C190.1,66.7,189.3,67.1,188.6,67.6z M188.6,71l-1.7,1l-0.7-1.6l1.6-1.1L188.6,71z M180.2,74.4
				l1.5-1c0.2,0.5,0.6,1,0.8,1.4l-1.5,0.8C180.7,75.2,180.4,74.7,180.2,74.4z M185.4,78.9c-0.3-1.1-0.8-2.5-1.3-3.6
				c0.8-0.5,1.6-1,2.4-1.5c0.6,1.2,1.1,2.1,1.6,2.9C187.5,77,186.6,78,185.4,78.9z M192.2,75.2c-0.7-0.8-1.4-2.1-2.2-3.7
				c0.8-0.5,1.7-0.8,2.6-1.3c0.6,1.4,1.1,2.6,1.7,3.5l-1,1C193.3,74.8,192.9,75,192.2,75.2z M197.5,70.6c-0.3-0.6-0.6-1.3-1-2.1
				c0.2-0.1,0.5-0.2,0.7-0.3l2.1,0.6L197.5,70.6z M188.6,60.2l16.5,4.6l-1.4,2.3l-15.8-4.4L188.6,60.2z M186.8,65.5
				c0.1,0.5,0.4,1.5,0.8,2.7l-1.6,1.1c-0.3-1.1-0.7-2.1-0.9-3.2C185.6,65.6,186.3,65.5,186.8,65.5z M183.7,67l0.2-0.2
				c0.3,1,0.6,2.1,0.9,3.1c-0.9,0.6-1.8,1.2-2.6,1.7c-0.2-0.5-0.3-0.9-0.4-1.4C182.5,68.9,183.2,67.8,183.7,67z M181.6,82
				c-0.8,0.3-2.1,0.7-2.7,0.9c-0.6-1.3-1-2.8-0.9-3.2c0.1-0.3,0.3-0.9,0.6-1.8c0.7-0.2,1.4-0.5,2.1-0.8c0.8,1.3,1.4,3.4,1.7,4.5
				C181.8,82,181.6,82,181.6,82z M227.5,102.3c-0.4,1.1-1.6,1.6-2.7,1.3l-38.6-10.7c-1.1-0.3-1.8-1.4-1.6-2.5l1.4-10.4
				c1.2-1.1,2.4-2.1,2.8-2.5l0,0c1.3,0,3.3-0.8,3.5-1c1-0.4,1.7-0.8,1.8-0.8c0-0.1,0.1,0,0.1-0.1l1.4-1.4l2.2-2.2l2.3-2.3l1.8,0.5
				l-1.2,2.1c-0.7,1.1-0.4,2.6,0.8,3.3l0.1,0.1c0.2,0.1,0.4,0.3,0.7,0.3c1.1,0.3,2.2-0.2,2.7-1.1l1.9-3.3l10.9,3l-0.1,3.8
				c0,1.1,0.7,2.1,1.8,2.4c0.3,0.1,0.5,0.1,0.7,0.1l0.1,0c1.3,0,2.3-1.1,2.3-2.4l0.1-2.5l13.6,3.8L227.5,102.3z M236.7,78.7l-14-3.9
				l0-1.2l14.3,4L236.7,78.7z M238.6,76.7l-15.8-4.4l0-2.8l16.5,4.6L238.6,76.7z"/>
			<circle fill="#93278F" cx="203" cy="73.2" r="0.7"/>
			<circle fill="#93278F" cx="220.1" cy="78.1" r="0.7"/>
		</g>
	</g>
	<g display="inline">
		<g>
			<path fill="#93278F" d="M267,239.7c-0.9-0.4-1.8-0.6-2.7-0.8l-0.3,2c0.8,0.1,1.5,0.4,2.3,0.7L267,239.7z"/>
			<path fill="#93278F" d="M272.4,253l2,0.4c0.9-4.7-1-9.4-4.8-12.2l-1.2,1.6C271.5,245.1,273.1,249.1,272.4,253z"/>
			<path fill="#93278F" d="M255.6,285.2c4,0.7,7.7-10.5,9.7-17.7c6.4-1.5,11.4-6.7,12.6-13.2c1.2-6.5-1.7-13.1-7.2-16.7
				c0.6-7.4,1-19.2-3-19.9c-0.5-0.1-1.5-0.3-3,1.5c-1.1,1.3-2.5,3.7-4.1,7.9c-0.9,2.4-1.8,5.2-2.6,8.2c-8.9,2-14.4,10.9-12.4,19.8
				c0.5,2.1,1.3,4,2.6,5.8c1.2,1.7,2.8,3.2,4.5,4.4C251.8,275.1,252,284.6,255.6,285.2z M275.9,254c-1.4,7.9-8.9,13.1-16.8,11.7
				c-1.5-0.3-3-0.8-4.4-1.5c0.4-4,1-8.5,1.9-13.6c0.8-4.8,1.9-9.3,3-13.4c1.5-0.2,3.1-0.2,4.6,0.1
				C272.1,238.6,277.3,246.1,275.9,254L275.9,254z M262.4,227.8c2.6-7,4.4-8.3,4.9-8.2c0.9,0.2,2.4,4.7,1.4,16.9
				c-1.3-0.6-2.7-1.1-4.2-1.4c-1.5-0.3-2.9-0.3-4.4-0.2C260.8,232.4,261.6,230,262.4,227.8z M249.7,259.8c-4.6-6.6-3-15.6,3.6-20.2
				c1.2-0.9,2.6-1.5,4-2c-1,3.9-1.9,8.2-2.7,12.6c-0.6,3.6-1.3,8.1-1.8,12.8C251.6,262.1,250.6,261,249.7,259.8z M254.5,266.4
				c2.7,1.3,5.7,1.8,8.6,1.5c-3.4,11.8-6.3,15.6-7.2,15.4C254.7,283.1,253.7,277.1,254.5,266.4z"/>
			<path fill="#93278F" d="M268.2,270.8c-1.4,1.7-1.2,4.2,0.5,5.6c1.7,1.4,4.2,1.2,5.6-0.5c1.4-1.7,1.2-4.2-0.5-5.6
				C272.2,268.9,269.7,269.1,268.2,270.8z M272.8,274.7c-0.7,0.8-2,1-2.8,0.2s-1-2-0.2-2.8s2-1,2.8-0.2
				C273.4,272.6,273.6,273.8,272.8,274.7C272.8,274.7,272.8,274.7,272.8,274.7L272.8,274.7z"/>
			<path fill="#93278F" d="M282.1,241.9c-2.1,2.5-1.8,6.3,0.7,8.5c2.5,2.1,6.3,1.8,8.5-0.7c2.1-2.5,1.8-6.3-0.7-8.5
				C288,239,284.2,239.4,282.1,241.9z M289.8,248.3c-1.4,1.7-3.9,1.9-5.6,0.5c-1.7-1.4-1.9-3.9-0.5-5.6s3.9-1.9,5.6-0.5
				C290.9,244.1,291.1,246.6,289.8,248.3L289.8,248.3z"/>
			<path fill="#93278F" d="M255.1,232.1c1.5-1.8,1.3-4.6-0.5-6.1c-1.8-1.5-4.6-1.3-6.1,0.5c-1.5,1.8-1.3,4.6,0.5,6.1c0,0,0,0,0,0
				C250.8,234.2,253.5,233.9,255.1,232.1z M250,227.8c0.8-1,2.3-1.1,3.3-0.3c1,0.8,1.1,2.3,0.3,3.3c-0.8,1-2.3,1.1-3.3,0.3l0,0
				C249.3,230.3,249.2,228.8,250,227.8z"/>
		</g>
	</g>
	<g display="inline">
		<g>
			<path fill="#93278F" d="M58.2,212.1c2.4,0.4,5.2-2.9,7.6-8.8c0.1-0.2,0.1-0.3,0-0.5c0-0.2-0.1-0.3-0.2-0.4
				c-4.6-4.4-8.6-6.1-10.6-4.7l0,0c-1.5,1-1.9,3.5-0.9,5.4c0.5,1,1.3,1.6,2,1.9c-0.6,0.7-1,1.6-1,2.5
				C54.9,209.5,56.4,211.8,58.2,212.1z M58.1,205.3c0.3-0.2,0.4-0.5,0.4-0.9c-0.1-0.3-0.4-0.6-0.7-0.6c0,0-1.6-0.3-2.3-1.6
				c-0.7-1.3-0.3-2.8,0.4-3.2c1-0.7,4.1,0.5,8.1,4.2c-2.1,5-4.3,7.5-5.5,7.3c-0.6-0.1-1.4-1-1.7-2.2c-0.1-0.3-0.1-0.5-0.1-0.8
				C56.8,206.3,57.6,205.6,58.1,205.3z"/>
			<path fill="#93278F" d="M94,206.1l1.5,0.8c0.3-0.5,1.4-2.8,0.8-5.5c-0.1-0.4-0.2-0.8-0.4-1.2c-0.3-0.8-0.7-1.4-1.2-1.9l4.2,1.3
				c0.3,0.1,0.6,0,0.8-0.2c0.2-0.2,0.3-0.5,0.2-0.8l-1.5-6.5c-0.1-0.3-0.3-0.5-0.6-0.6c-0.3-0.1-0.6,0-0.8,0.2l-3.1,2.8
				c0.2-0.6,0.3-1.4,0.2-2.2c0-0.5-0.1-0.9-0.2-1.3c-0.6-2.7-2.6-4.3-3.1-4.7l-1,1.3c0.4,0.3,2.4,1.9,2.6,4.7
				c0.1,1.4-0.4,2.5-0.8,3.2l-16.3-5.1c-0.3-0.1-0.6,0-0.8,0.2c-0.2,0.2-0.3,0.5-0.2,0.8l0.1,0.3c-0.8-0.6-1.7-0.8-2.7-0.5
				c-2.2,0.5-3.6,2.9-3.1,5.4c0,0.1,0,0.3,0.1,0.4c0,0.1,0,0.3,0.1,0.4c-1.3,1-1.8,2.9-1.4,5c0.5,2.2,1.8,3.7,3.4,4.1
				c0,0.1,0.1,0.2,0.1,0.3c0,0.1,0.1,0.2,0.1,0.3c0.6,2.5,2.8,4.1,5.1,3.6c1-0.2,1.7-0.8,2.2-1.6l0.1,0.3c0.1,0.3,0.3,0.5,0.6,0.6
				c0.3,0.1,0.6,0,0.8-0.2l12.5-11.5c0.7,0.5,1.5,1.3,2,2.5C95.4,203.3,94.2,205.7,94,206.1z M97.9,197.5l-3.6-1.1l2.8-2.6
				L97.9,197.5z M77.2,207.5c-0.3,1-0.7,1.5-1.5,1.6c-1.3,0.3-2.7-0.7-3.1-2.3c0-0.2-0.1-0.4-0.2-0.5c-0.1-0.2-0.1-0.3-0.1-0.4
				c0-0.2-0.1-0.5-0.2-0.6c-0.2-0.2-0.4-0.3-0.6-0.3c-1.1,0-2.2-1.2-2.5-2.9c-0.4-1.6,0.1-3,1.1-3.5c0.2-0.1,0.4-0.3,0.4-0.5
				c0.1-0.2,0-0.5-0.1-0.7c-0.1-0.1-0.1-0.4-0.1-0.6c0-0.2,0-0.4-0.1-0.6c-0.4-1.6,0.5-3.1,1.8-3.4c0.7-0.2,1.3,0.1,2,0.8
				c0.2,0.2,0.5,0.3,0.8,0.2l2.9,13C77.5,207,77.3,207.2,77.2,207.5z M79.6,207.4l-3.3-14.6l0-0.2l14.8,4.6l-11.4,10.5L79.6,207.4z"
				/>
			
				<rect x="50.7" y="204.7" transform="matrix(0.2196 0.9756 -0.9756 0.2196 241.2022 110.448)" fill="#93278F" width="1.7" height="2.5"/>
			
				<rect x="49.1" y="197.7" transform="matrix(0.8451 0.5346 -0.5346 0.8451 113.9508 3.8531)" fill="#93278F" width="2.4" height="1.7"/>
			
				<rect x="52.8" y="212" transform="matrix(0.8451 0.5346 -0.5346 0.8451 122.2803 4.3589)" fill="#93278F" width="1.7" height="2.4"/>
			<path fill="#93278F" d="M66.5,179.5c0.1,0.7,0.5,1.2,0.9,1.6c-0.2,0.5-0.3,1.1-0.1,1.8c0.4,1.3,1.8,1.9,2.8,1.8
				c1.7-0.1,3.2-2.2,3.3-4.8c0-0.1,0-0.2,0-0.2c0-0.1,0-0.1-0.1-0.2c-1.2-2.3-3.4-3.5-5-2.9C67.3,177,66.3,178.2,66.5,179.5z
				 M71.7,180.1c-0.2,1.9-1.1,2.9-1.7,3c-0.3,0-1-0.2-1.1-0.7c0,0,0,0,0-0.1c-0.1-0.5,0.3-1,0.3-1c0.2-0.2,0.2-0.5,0.2-0.7l0,0
				c-0.1-0.3-0.2-0.5-0.5-0.6c0,0-0.6-0.3-0.7-0.8c-0.1-0.5,0.4-1,0.7-1.1C69.5,177.9,70.8,178.5,71.7,180.1z"/>
			<path fill="#93278F" d="M79.3,225.3c1.7-0.1,3.2-2.2,3.3-4.8c0-0.1,0-0.2,0-0.2c0-0.1,0-0.1-0.1-0.2c-1.2-2.3-3.4-3.6-5-2.9
				c-1,0.4-2,1.6-1.8,2.9c0.1,0.7,0.5,1.2,0.9,1.6c-0.2,0.5-0.3,1.2-0.1,1.8C76.8,224.7,78.2,225.4,79.3,225.3z M78,223
				C78,223,78,223,78,223c-0.1-0.5,0.3-1,0.3-1c0.2-0.2,0.2-0.5,0.2-0.7c0-0.2-0.2-0.5-0.5-0.6c0,0-0.6-0.3-0.7-0.8
				c-0.1-0.5,0.4-1,0.7-1.1c0.6-0.2,1.9,0.3,2.8,2c-0.2,1.9-1.1,2.9-1.7,2.9C78.8,223.7,78.2,223.5,78,223z"/>
			
				<rect x="73.3" y="224" transform="matrix(0.2196 0.9756 -0.9756 0.2196 277.1984 103.0938)" fill="#93278F" width="1.7" height="1.7"/>
			
				<rect x="72.2" y="219.1" transform="matrix(0.2196 0.9756 -0.9756 0.2196 271.5847 100.3592)" fill="#93278F" width="1.7" height="1.7"/>
			
				<rect x="64.2" y="183.3" transform="matrix(0.2196 0.9756 -0.9756 0.2196 230.4178 80.3055)" fill="#93278F" width="1.7" height="1.7"/>
			
				<rect x="63.1" y="178.5" transform="matrix(0.2196 0.9756 -0.9756 0.2196 224.8041 77.5709)" fill="#93278F" width="1.7" height="1.7"/>
			<path fill="#93278F" d="M87.7,182.7c0-0.1,0-0.2,0-0.2c0-0.1,0-0.1-0.1-0.2c-1.2-2.3-3.4-3.5-5-2.9c-1,0.4-2,1.6-1.8,2.9
				c0.1,0.7,0.5,1.2,0.9,1.6c-0.2,0.5-0.3,1.1-0.1,1.8c0.4,1.3,1.8,1.9,2.8,1.8C86.2,187.4,87.6,185.3,87.7,182.7z M83.2,185.2
				C83.2,185.1,83.2,185.1,83.2,185.2c-0.1-0.5,0.3-1,0.3-1c0.2-0.2,0.2-0.5,0.2-0.7l0,0c-0.1-0.3-0.2-0.5-0.5-0.6
				c0,0-0.6-0.3-0.7-0.8c-0.1-0.5,0.4-1,0.7-1.1c0.6-0.2,1.9,0.3,2.8,1.9c-0.2,1.9-1.1,2.9-1.7,3C84,185.8,83.3,185.6,83.2,185.2z"
				/>
			
				<rect x="78.5" y="186.1" transform="matrix(0.2196 0.9756 -0.9756 0.2196 244.2593 68.5261)" fill="#93278F" width="1.7" height="1.7"/>
			
				<rect x="77.4" y="181.2" transform="matrix(0.2196 0.9756 -0.9756 0.2196 238.6457 65.7914)" fill="#93278F" width="1.7" height="1.7"/>
			<path fill="#93278F" d="M94.8,214.4c0-0.1,0-0.2,0-0.2c0-0.1,0-0.1-0.1-0.2c-1.2-2.3-3.4-3.5-5-2.9c-1,0.4-2,1.5-1.8,2.9
				c0.1,0.7,0.5,1.2,0.9,1.6c-0.2,0.5-0.3,1.1-0.1,1.8c0.4,1.3,1.8,1.9,2.8,1.9C93.3,219.1,94.7,217,94.8,214.4z M90.3,216.8
				C90.3,216.8,90.3,216.8,90.3,216.8c-0.1-0.5,0.3-1,0.3-1c0.2-0.2,0.2-0.5,0.2-0.7c0,0,0,0,0,0c-0.1-0.3-0.2-0.5-0.5-0.6
				c0,0-0.6-0.3-0.7-0.8c-0.1-0.5,0.4-1,0.7-1.1c0.6-0.2,1.9,0.3,2.8,1.9c-0.2,1.9-1.1,2.9-1.7,3C91.1,217.5,90.4,217.3,90.3,216.8z
				"/>
			
				<rect x="85.6" y="217.8" transform="matrix(0.2196 0.9756 -0.9756 0.2196 280.7482 86.301)" fill="#93278F" width="1.7" height="1.7"/>
			
				<rect x="84.5" y="212.9" transform="matrix(0.2196 0.9756 -0.9756 0.2196 275.1346 83.5664)" fill="#93278F" width="1.7" height="1.7"/>
			<path fill="#93278F" d="M58.4,193.3c1.7-0.1,3.2-2.2,3.3-4.8c0-0.1,0-0.2,0-0.2c0-0.1,0-0.1-0.1-0.2c-1.2-2.3-3.4-3.5-5-2.9
				c-1,0.4-2,1.6-1.8,2.9c0.1,0.7,0.5,1.2,0.9,1.6c-0.2,0.5-0.3,1.1-0.1,1.8C56,192.8,57.3,193.4,58.4,193.3z M57.2,191
				C57.2,191,57.1,191,57.2,191c-0.1-0.5,0.3-1,0.3-1c0.2-0.2,0.2-0.5,0.2-0.7l0,0c-0.1-0.3-0.2-0.5-0.5-0.6c0,0-0.6-0.3-0.7-0.8
				c-0.1-0.5,0.4-1,0.7-1.1c0.6-0.2,1.9,0.3,2.8,1.9c-0.2,1.9-1.1,2.9-1.7,3C58,191.7,57.3,191.5,57.2,191z"/>
			
				<rect x="52.5" y="192" transform="matrix(0.2196 0.9756 -0.9756 0.2196 229.6748 98.4656)" fill="#93278F" width="1.7" height="1.7"/>
			
				<rect x="51.4" y="187.1" transform="matrix(0.2196 0.9756 -0.9756 0.2196 224.0611 95.731)" fill="#93278F" width="1.7" height="1.7"/>
			<path fill="#93278F" d="M63.4,215.3c-1,0.4-2,1.5-1.8,2.9c0.1,0.7,0.5,1.2,0.9,1.6c-0.2,0.5-0.3,1.1-0.1,1.8
				c0.4,1.3,1.8,1.9,2.8,1.9c1.7-0.1,3.2-2.2,3.3-4.8c0-0.1,0-0.2,0-0.2c0-0.1,0-0.1-0.1-0.2C67.1,215.9,65,214.7,63.4,215.3z
				 M66.8,218.8c-0.2,1.9-1.1,2.9-1.7,3c-0.4,0-1-0.2-1.1-0.7c0,0,0,0,0-0.1c-0.1-0.4,0.3-0.9,0.3-1c0.2-0.2,0.2-0.5,0.2-0.7
				c0-0.2-0.2-0.5-0.5-0.6c0,0-0.6-0.3-0.7-0.8c-0.1-0.5,0.4-1,0.7-1.1C64.6,216.6,65.8,217.2,66.8,218.8z"/>
			
				<rect x="59.2" y="222" transform="matrix(0.2196 0.9756 -0.9756 0.2196 264.2924 115.329)" fill="#93278F" width="1.7" height="1.7"/>
			
				<rect x="57.9" y="216.3" transform="matrix(0.2196 0.9756 -0.9756 0.2196 257.7431 112.1387)" fill="#93278F" width="1.7" height="1.7"/>
			
				<rect x="70.6" y="200.7" transform="matrix(0.2196 0.9756 -0.9756 0.2196 252.3685 87.5255)" fill="#93278F" width="1.7" height="1.7"/>
			
				<rect x="74.4" y="205.8" transform="matrix(0.2196 0.9756 -0.9756 0.2196 260.2851 87.9091)" fill="#93278F" width="1.7" height="1.7"/>
			
				<rect x="71.8" y="194.4" transform="matrix(0.2196 0.9756 -0.9756 0.2196 247.1866 81.5283)" fill="#93278F" width="1.7" height="1.7"/>
		</g>
	</g>
</g>
<g id="Inner">
	<g>
		<path fill="#93278F" d="M169.3,202.6c6.7,0.8,1.9,10.9-3.2,6.2c-5.3,1.7-9.7-4.4-5.6-8.2C163.2,198,168.1,199,169.3,202.6z
			 M211.8,171.3c1,2.3,0.6,4.9-1.2,6.8c11.7,9.2-8.1,24.5-15.3,11c-2.2,1.2-4.9,1.2-7.1,0c-1.3,6.3-10.6,7.3-13.4,1.5
			c-1.2,0.1-2.4-0.2-3.5-0.7c-3.8,4.3-11.7,2.7-12.6-3.2c-4.1,0.8-8.5-2.1-8.5-6.4c0-0.1-9.9-7.9-1.3-15c-5.3-7,4.1-15.5,11.5-10.7
			c2.9-5.7,12.2-4.6,13.4,1.7c1.4-0.3,3-0.1,4.3,0.5c2.3-8.3,14.5-9.3,18.5-1.8c3.7-1,7.8,0.9,8.9,4.6
			C212.9,157.8,218,166.8,211.8,171.3z M209.6,170.7c6.8-3.8,2.3-11.9-5.4-8.8c-0.5-4.8-3.9-6.6-8.3-4.9c-3.4-7.9-15.2-7.6-16.5,2.4
			c-2.8-1.8-3.7-2.1-7.1-1.1c-0.1-7.1-8.9-8.5-11.1-1.1c-7.2-6.1-16.5,1.4-9.9,8.3c-5.7,3.8-5.8,10.3,0.6,13.4
			c-0.8,5.5,4,6.9,8.3,5.5c-0.1,6.6,6.9,8.6,10.5,3.2c2,1.2,2.9,1.3,5,1.1c2.3,6.1,11.2,5.5,10.8-3.1c3.5,3,5.7,3.7,9.4,0.9
			c5.8,14.3,25.2-0.1,12-8.4C211,175.8,211.6,173.9,209.6,170.7z M156.9,192.3c3.7,2.7,0.8,8-3.7,7.1c-4.1,1.6-8.1-3-5-6.4
			C147.6,187.7,156.4,187,156.9,192.3z M155.2,193.2c0.1-4.4-6.3-3.8-5.2,0.4c-2.8,2.4-0.1,5.6,3.1,4.1
			C156.3,198.6,158.7,195.2,155.2,193.2z M168.1,204.1c-0.7-3.2-4.1-4.5-6.4-2.4c-2.9,2.6,0.2,7.2,4.9,5.1
			C170,211.2,173.9,204.1,168.1,204.1z"/>
	</g>
</g>
<g id="Text" display="none">
	<rect x="11.2" y="6.5" display="inline" fill="none" width="330" height="297.8"/>
	<text transform="matrix(1 0 0 1 11.189 15.3003)" display="inline"><tspan x="0" y="0" font-family="'Gotham-Book'" font-size="12">dreaming bubble by Andreea Laura Parlafes from the </tspan><tspan x="0" y="14.4" font-family="'Gotham-Book'" font-size="12">Noun Project</tspan><tspan x="0" y="51.8" font-family="'Arial-BoldMT'" font-size="19.2">Created by Seymur Allahyarli from </tspan><tspan x="0" y="74.9" font-family="'Arial-BoldMT'" font-size="19.2">the Noun Project</tspan><tspan x="0" y="133.9" font-family="'Arial-BoldMT'" font-size="30">Created by Becris </tspan><tspan x="0" y="169.9" font-family="'Arial-BoldMT'" font-size="30">from the Noun Project</tspan><tspan x="0" y="229" font-family="'Arial-BoldMT'" font-size="19.2">Created by parkjisun</tspan><tspan x="0" y="252" font-family="'Arial-BoldMT'" font-size="19.2">from the Noun Project</tspan></text>
</g>
</svg>
