<?xml version="1.0" encoding="utf-8"?>
<!-- Generator: Adobe Illustrator 18.0.0, SVG Export Plug-In . SVG Version: 6.00 Build 0)  -->
<!DOCTYPE svg PUBLIC "-//W3C//DTD SVG 1.1//EN" "http://www.w3.org/Graphics/SVG/1.1/DTD/svg11.dtd">
<svg version="1.1" xmlns="http://www.w3.org/2000/svg" xmlns:xlink="http://www.w3.org/1999/xlink" x="0px" y="0px"
	 viewBox="0 0 360 360" enable-background="new 0 0 360 360" xml:space="preserve">
<g id="Circle" display="none">
	<circle display="inline" fill="none" cx="179.7" cy="175.9" r="151.9"/>
</g>
<g id="Layer_2" display="none">
	<path id="SVGID_x5F_1_x5F_" display="inline" fill="none" d="M157.2,326.1c-83-12.5-140.1-89.8-127.7-172.8S119.3,13.2,202.3,25.7
		s140.1,89.8,127.7,172.8C317.5,281.4,240.1,338.5,157.2,326.1z"/>
	<text display="inline">	<textPath  xlink:href="#SVGID_x5F_1_x5F_" startOffset="64.9089%">
<tspan  fill="#93278F" font-family="'Gotham-Thin'" font-size="12">ONCE UPONT A TIME...</tspan>	</textPath>
</text>
</g>
<g id="Layer_3">
	<path id="SVGID_x5F_2_x5F_" fill="none" d="M290.3,90.7c47,61.1,35.6,148.7-25.5,195.7S116.1,322.1,69.1,261S33.5,112.3,94.6,65.3
		S243.3,29.7,290.3,90.7z"/>
	<text>	<textPath  xlink:href="#SVGID_x5F_2_x5F_" startOffset="64.9089%">
<tspan  fill="#93278F" font-family="'Gotham-Thin'" font-size="11.0264">IT WAS A DARK AND STORM Y NIGHT...</tspan>	</textPath>
</text>
</g>
<g id="Layer_4" display="none">
	<path id="SVGID_x5F_3_x5F_" display="inline" fill="none" d="M70.3,112.5c35-60.4,112.3-81,172.8-46s81,112.3,46,172.8
		s-112.3,81-172.8,46S35.3,172.9,70.3,112.5z"/>
	<text display="inline">	<textPath  xlink:href="#SVGID_x5F_3_x5F_" startOffset="64.9089%">
<tspan  fill="#93278F" font-family="'Gotham-Thin'" font-size="9.9885">IN A GALAXY FAR, FAR AWAY...</tspan>	</textPath>
</text>
</g>
</svg>
